<svg width="150" height="150" viewBox="0 0 150 150" fill="none" xmlns="http://www.w3.org/2000/svg">
<path d="M12.4242 117.016C2.01564 117.016 1.21173 105.804 1.21173 105.804V35.5148H139.083C139.083 35.5148 149.473 35.0367 149.473 44.5992C149.473 54.6539 140.487 54.1031 140.487 54.1031H103.68C102.738 53.7491 101.757 53.5075 100.758 53.3836L70.6453 49.582L37.3594 39.9891C37.1071 39.9159 36.8429 39.8931 36.5819 39.9221C36.3209 39.951 36.0681 40.0312 35.8381 40.1578C35.608 40.2845 35.4052 40.4553 35.2411 40.6603C35.0771 40.8654 34.9551 41.1008 34.882 41.3531C34.5773 42.4172 35.1773 43.5773 36.2367 43.8867L70.1906 53.6742C72.5343 54.3445 74.4679 55.8937 75.6515 58.0265C76.8304 60.157 77.1117 62.6132 76.4367 64.9476C76.1077 66.0995 75.5537 67.1748 74.8066 68.1114C74.0596 69.0479 73.1343 69.8271 72.0843 70.4038C69.9867 71.5706 67.5114 71.8564 65.2031 71.1984C65.189 71.1937 65.1726 71.1937 65.1539 71.1937L50.8734 67.0523C43.4625 64.7296 37.9453 67.0617 32.0906 69.5296C27.5836 71.4327 22.9266 73.3921 16.6008 73.8234C15.8273 73.8726 15.0117 73.9241 14.0578 73.9171C13.7948 73.9131 13.5336 73.9612 13.2893 74.0586C13.045 74.156 12.8224 74.3009 12.6344 74.4848C12.4463 74.6687 12.2966 74.888 12.1937 75.1301C12.0909 75.3722 12.037 75.6322 12.0352 75.8952C12.0211 77.0062 12.9492 77.9741 14.0578 77.9741C22.5469 77.9695 28.4601 75.471 33.675 73.2679C39.2625 70.9101 43.6734 69.0445 49.6992 70.9382C49.7132 70.9429 50.9578 71.3038 52.7015 71.8031C50.6658 72.7348 48.9013 74.1703 47.575 75.974C46.2487 77.7777 45.4043 79.8899 45.1218 82.1109C44.8009 84.6611 45.2325 87.2495 46.3635 89.5577C47.4945 91.8659 49.2755 93.7931 51.4875 95.1022C50.0806 96.053 48.8929 97.2931 48.0038 98.7397C47.1146 100.186 46.5443 101.806 46.3312 103.49C45.5062 110.02 50.1539 116.383 56.6836 117.016L12.4219 117.014L12.4242 117.016Z" fill="white"/>
<path d="M121.345 108.483H139.584V103.901H121.345V108.483ZM128.187 81.5953V88.3406H121.345V92.9297H128.187V99.6H132.769V92.9297H139.584V88.3406H132.769V81.5953H128.187ZM130.474 117.595C119.29 117.595 113.838 108.471 113.838 100.352C113.838 88.4133 130.474 62.0204 130.474 62.0204C130.474 62.0204 147.103 88.4133 147.103 100.352C147.103 108.473 141.661 117.595 130.474 117.595Z" fill="#F90202"/>
<path d="M108.157 67.5938C107.851 69.9923 106.606 72.1715 104.695 73.6528C102.784 75.1341 100.363 75.7965 97.9641 75.4945L75.8929 72.7149C78.036 71.0199 79.5914 68.6937 80.339 66.0656C80.9015 64.1318 81.0088 62.0941 80.6526 60.1119C80.2965 58.1297 79.4864 56.2568 78.2859 54.6398L100.252 57.4078C102.649 57.7137 104.828 58.958 106.31 60.8679C107.792 62.7777 108.456 65.1973 108.157 67.5961V67.5938Z" fill="white"/>
<path d="M97.4907 88.7156C97.3431 89.9041 96.9616 91.0516 96.3683 92.0918C95.7749 93.1321 94.9814 94.0446 94.0336 94.7766C93.0883 95.5137 92.0064 96.0562 90.8502 96.3728C89.6941 96.6894 88.4866 96.7738 87.2977 96.6211L57.0516 92.8078C54.6532 92.5019 52.474 91.2573 50.992 89.3469C49.51 87.4365 48.8462 85.0163 49.1461 82.6172C49.2927 81.4291 49.6737 80.2819 50.2672 79.2423C50.8606 78.2026 51.6546 77.2912 52.6032 76.5609C53.5466 75.822 54.6276 75.278 55.7831 74.9606C56.9387 74.6431 58.1459 74.5585 59.3344 74.7117L89.5852 78.5273C91.9829 78.8327 94.1617 80.0765 95.6437 81.986C97.1257 83.8955 97.7899 86.3148 97.4907 88.7133V88.7156Z" fill="white"/>
<path d="M83.3789 108.162C83.1134 110.236 82.0365 112.12 80.3843 113.402C78.7321 114.684 76.6392 115.259 74.5641 115.001L57.1898 112.809C55.1162 112.543 53.2325 111.466 51.9515 109.814C50.6705 108.162 50.0966 106.069 50.3555 103.995C50.6221 101.921 51.6995 100.038 53.3516 98.7577C55.0038 97.4772 57.0961 96.9036 59.1703 97.1625L76.5398 99.3516C78.6137 99.616 80.4981 100.692 81.7801 102.343C83.0621 103.995 83.637 106.087 83.3789 108.162Z" fill="white"/>
</svg>
