<svg width="171" height="65" viewBox="0 0 171 65" fill="none" xmlns="http://www.w3.org/2000/svg">
<circle cx="32.5" cy="32.5" r="28.5" stroke="#0B68D8" stroke-width="8"/>
<path d="M78.292 26.454C79.66 26.454 80.842 26.712 81.838 27.228C82.846 27.732 83.614 28.458 84.142 29.406C84.682 30.354 84.952 31.47 84.952 32.754C84.952 34.038 84.682 35.154 84.142 36.102C83.614 37.038 82.846 37.758 81.838 38.262C80.842 38.754 79.66 39 78.292 39H74.386V26.454H78.292ZM78.292 37.65C79.912 37.65 81.148 37.224 82 36.372C82.852 35.508 83.278 34.302 83.278 32.754C83.278 31.194 82.846 29.976 81.982 29.1C81.13 28.224 79.9 27.786 78.292 27.786H76.024V37.65H78.292ZM87.9586 27.534C87.6466 27.534 87.3826 27.426 87.1666 27.21C86.9506 26.994 86.8426 26.73 86.8426 26.418C86.8426 26.106 86.9506 25.842 87.1666 25.626C87.3826 25.41 87.6466 25.302 87.9586 25.302C88.2586 25.302 88.5106 25.41 88.7146 25.626C88.9306 25.842 89.0386 26.106 89.0386 26.418C89.0386 26.73 88.9306 26.994 88.7146 27.21C88.5106 27.426 88.2586 27.534 87.9586 27.534ZM88.7506 29.136V39H87.1126V29.136H88.7506ZM90.9303 34.032C90.9303 33.024 91.1343 32.142 91.5423 31.386C91.9503 30.618 92.5083 30.024 93.2163 29.604C93.9363 29.184 94.7343 28.974 95.6103 28.974C96.4743 28.974 97.2243 29.16 97.8603 29.532C98.4963 29.904 98.9703 30.372 99.2823 30.936V29.136H100.938V39H99.2823V37.164C98.9583 37.74 98.4723 38.22 97.8243 38.604C97.1883 38.976 96.4443 39.162 95.5923 39.162C94.7163 39.162 93.9243 38.946 93.2163 38.514C92.5083 38.082 91.9503 37.476 91.5423 36.696C91.1343 35.916 90.9303 35.028 90.9303 34.032ZM99.2823 34.05C99.2823 33.306 99.1323 32.658 98.8323 32.106C98.5323 31.554 98.1243 31.134 97.6083 30.846C97.1043 30.546 96.5463 30.396 95.9343 30.396C95.3223 30.396 94.7643 30.54 94.2603 30.828C93.7563 31.116 93.3543 31.536 93.0543 32.088C92.7543 32.64 92.6043 33.288 92.6043 34.032C92.6043 34.788 92.7543 35.448 93.0543 36.012C93.3543 36.564 93.7563 36.99 94.2603 37.29C94.7643 37.578 95.3223 37.722 95.9343 37.722C96.5463 37.722 97.1043 37.578 97.6083 37.29C98.1243 36.99 98.5323 36.564 98.8323 36.012C99.1323 35.448 99.2823 34.794 99.2823 34.05ZM105.344 30.972C105.68 30.384 106.172 29.904 106.82 29.532C107.468 29.16 108.206 28.974 109.034 28.974C109.922 28.974 110.72 29.184 111.428 29.604C112.136 30.024 112.694 30.618 113.102 31.386C113.51 32.142 113.714 33.024 113.714 34.032C113.714 35.028 113.51 35.916 113.102 36.696C112.694 37.476 112.13 38.082 111.41 38.514C110.702 38.946 109.91 39.162 109.034 39.162C108.182 39.162 107.432 38.976 106.784 38.604C106.148 38.232 105.668 37.758 105.344 37.182V39H103.706V25.68H105.344V30.972ZM112.04 34.032C112.04 33.288 111.89 32.64 111.59 32.088C111.29 31.536 110.882 31.116 110.366 30.828C109.862 30.54 109.304 30.396 108.692 30.396C108.092 30.396 107.534 30.546 107.018 30.846C106.514 31.134 106.106 31.56 105.794 32.124C105.494 32.676 105.344 33.318 105.344 34.05C105.344 34.794 105.494 35.448 105.794 36.012C106.106 36.564 106.514 36.99 107.018 37.29C107.534 37.578 108.092 37.722 108.692 37.722C109.304 37.722 109.862 37.578 110.366 37.29C110.882 36.99 111.29 36.564 111.59 36.012C111.89 35.448 112.04 34.788 112.04 34.032ZM124.87 33.69C124.87 34.002 124.852 34.332 124.816 34.68H116.932C116.992 35.652 117.322 36.414 117.922 36.966C118.534 37.506 119.272 37.776 120.136 37.776C120.844 37.776 121.432 37.614 121.9 37.29C122.38 36.954 122.716 36.51 122.908 35.958H124.672C124.408 36.906 123.88 37.68 123.088 38.28C122.296 38.868 121.312 39.162 120.136 39.162C119.2 39.162 118.36 38.952 117.616 38.532C116.884 38.112 116.308 37.518 115.888 36.75C115.468 35.97 115.258 35.07 115.258 34.05C115.258 33.03 115.462 32.136 115.87 31.368C116.278 30.6 116.848 30.012 117.58 29.604C118.324 29.184 119.176 28.974 120.136 28.974C121.072 28.974 121.9 29.178 122.62 29.586C123.34 29.994 123.892 30.558 124.276 31.278C124.672 31.986 124.87 32.79 124.87 33.69ZM123.178 33.348C123.178 32.724 123.04 32.19 122.764 31.746C122.488 31.29 122.11 30.948 121.63 30.72C121.162 30.48 120.64 30.36 120.064 30.36C119.236 30.36 118.528 30.624 117.94 31.152C117.364 31.68 117.034 32.412 116.95 33.348H123.178ZM129.03 30.486V36.3C129.03 36.78 129.132 37.122 129.336 37.326C129.54 37.518 129.894 37.614 130.398 37.614H131.604V39H130.128C129.216 39 128.532 38.79 128.076 38.37C127.62 37.95 127.392 37.26 127.392 36.3V30.486H126.114V29.136H127.392V26.652H129.03V29.136H131.604V30.486H129.03ZM134.435 27.534C134.123 27.534 133.859 27.426 133.643 27.21C133.427 26.994 133.319 26.73 133.319 26.418C133.319 26.106 133.427 25.842 133.643 25.626C133.859 25.41 134.123 25.302 134.435 25.302C134.735 25.302 134.987 25.41 135.191 25.626C135.407 25.842 135.515 26.106 135.515 26.418C135.515 26.73 135.407 26.994 135.191 27.21C134.987 27.426 134.735 27.534 134.435 27.534ZM135.227 29.136V39H133.589V29.136H135.227ZM137.407 34.05C137.407 33.03 137.611 32.142 138.019 31.386C138.427 30.618 138.991 30.024 139.711 29.604C140.443 29.184 141.277 28.974 142.213 28.974C143.425 28.974 144.421 29.268 145.201 29.856C145.993 30.444 146.515 31.26 146.767 32.304H145.003C144.835 31.704 144.505 31.23 144.013 30.882C143.533 30.534 142.933 30.36 142.213 30.36C141.277 30.36 140.521 30.684 139.945 31.332C139.369 31.968 139.081 32.874 139.081 34.05C139.081 35.238 139.369 36.156 139.945 36.804C140.521 37.452 141.277 37.776 142.213 37.776C142.933 37.776 143.533 37.608 144.013 37.272C144.493 36.936 144.823 36.456 145.003 35.832H146.767C146.503 36.84 145.975 37.65 145.183 38.262C144.391 38.862 143.401 39.162 142.213 39.162C141.277 39.162 140.443 38.952 139.711 38.532C138.991 38.112 138.427 37.518 138.019 36.75C137.611 35.982 137.407 35.082 137.407 34.05ZM153.254 39.162C152.33 39.162 151.49 38.952 150.734 38.532C149.99 38.112 149.402 37.518 148.97 36.75C148.55 35.97 148.34 35.07 148.34 34.05C148.34 33.042 148.556 32.154 148.988 31.386C149.432 30.606 150.032 30.012 150.788 29.604C151.544 29.184 152.39 28.974 153.326 28.974C154.262 28.974 155.108 29.184 155.864 29.604C156.62 30.012 157.214 30.6 157.646 31.368C158.09 32.136 158.312 33.03 158.312 34.05C158.312 35.07 158.084 35.97 157.628 36.75C157.184 37.518 156.578 38.112 155.81 38.532C155.042 38.952 154.19 39.162 153.254 39.162ZM153.254 37.722C153.842 37.722 154.394 37.584 154.91 37.308C155.426 37.032 155.84 36.618 156.152 36.066C156.476 35.514 156.638 34.842 156.638 34.05C156.638 33.258 156.482 32.586 156.17 32.034C155.858 31.482 155.45 31.074 154.946 30.81C154.442 30.534 153.896 30.396 153.308 30.396C152.708 30.396 152.156 30.534 151.652 30.81C151.16 31.074 150.764 31.482 150.464 32.034C150.164 32.586 150.014 33.258 150.014 34.05C150.014 34.854 150.158 35.532 150.446 36.084C150.746 36.636 151.142 37.05 151.634 37.326C152.126 37.59 152.666 37.722 153.254 37.722Z" fill="white"/>
<line x1="169.5" y1="19" x2="169.5" y2="49" stroke="#0B68D8" stroke-width="3"/>
</svg>
